<svg width="59" height="59" viewBox="0 0 59 59" fill="none" xmlns="http://www.w3.org/2000/svg">
<path d="M29.5 33.1875C38.6611 33.1875 46.0938 25.7549 46.0938 16.5938C46.0938 7.43262 38.6611 0 29.5 0C20.3389 0 12.9062 7.43262 12.9062 16.5938C12.9062 25.7549 20.3389 33.1875 29.5 33.1875ZM44.25 36.875H37.9006C35.3424 38.0504 32.4961 38.7188 29.5 38.7188C26.5039 38.7188 23.6691 38.0504 21.0994 36.875H14.75C6.60293 36.875 0 43.4779 0 51.625V53.4688C0 56.5225 2.47754 59 5.53125 59H53.4688C56.5225 59 59 56.5225 59 53.4688V51.625C59 43.4779 52.3971 36.875 44.25 36.875Z" fill="black"/>
</svg>
