<svg width="71" height="71" viewBox="0 0 71 71" fill="none" xmlns="http://www.w3.org/2000/svg">
<path d="M35.5 0C15.8891 0 0 15.8891 0 35.5C0 55.1109 15.8891 71 35.5 71C55.1109 71 71 55.1109 71 35.5C71 15.8891 55.1109 0 35.5 0ZM56.1129 39.5081C56.1129 40.4528 55.3399 41.2258 54.3952 41.2258H41.2258V54.3952C41.2258 55.3399 40.4528 56.1129 39.5081 56.1129H31.4919C30.5472 56.1129 29.7742 55.3399 29.7742 54.3952V41.2258H16.6048C15.6601 41.2258 14.8871 40.4528 14.8871 39.5081V31.4919C14.8871 30.5472 15.6601 29.7742 16.6048 29.7742H29.7742V16.6048C29.7742 15.6601 30.5472 14.8871 31.4919 14.8871H39.5081C40.4528 14.8871 41.2258 15.6601 41.2258 16.6048V29.7742H54.3952C55.3399 29.7742 56.1129 30.5472 56.1129 31.4919V39.5081Z" fill="black"/>
</svg>
