<svg width="70" height="67" viewBox="0 0 70 67" fill="none" xmlns="http://www.w3.org/2000/svg">
<path d="M40.2377 62.5124L36.7693 65.9184C35.3008 67.3605 32.926 67.3605 31.4731 65.9184L1.10144 36.1082C-0.367147 34.666 -0.367147 32.334 1.10144 30.9071L31.4731 1.08163C32.9416 -0.360545 35.3164 -0.360545 36.7693 1.08163L40.2377 4.48763C41.7219 5.94516 41.6907 8.32322 40.1752 9.75006L21.3492 27.3631H66.2504C68.3283 27.3631 70 29.0047 70 31.0452V35.9548C70 37.9953 68.3283 39.6369 66.2504 39.6369H21.3492L40.1752 57.2499C41.7063 58.6768 41.7375 61.0548 40.2377 62.5124Z" fill="black"/>
</svg>
