<svg width="67" height="58" viewBox="0 0 67 58" fill="none" xmlns="http://www.w3.org/2000/svg">
<path d="M66.806 14.3156V51.1271C66.806 54.5142 64.0007 57.2623 60.5429 57.2623H6.26306C2.80533 57.2623 0 54.5142 0 51.1271V14.3156C0 10.9284 2.80533 8.18033 6.26306 8.18033H17.7453L19.3503 3.97513C20.2636 1.58494 22.5992 0 25.2088 0H41.5841C44.1937 0 46.5293 1.58494 47.4427 3.97513L49.0607 8.18033H60.5429C64.0007 8.18033 66.806 10.9284 66.806 14.3156ZM49.0607 32.7213C49.0607 24.2598 42.0408 17.3832 33.403 17.3832C24.7652 17.3832 17.7453 24.2598 17.7453 32.7213C17.7453 41.1828 24.7652 48.0594 33.403 48.0594C42.0408 48.0594 49.0607 41.1828 49.0607 32.7213ZM44.8853 32.7213C44.8853 38.9205 39.7313 43.9693 33.403 43.9693C27.0747 43.9693 21.9207 38.9205 21.9207 32.7213C21.9207 26.5222 27.0747 21.4734 33.403 21.4734C39.7313 21.4734 44.8853 26.5222 44.8853 32.7213Z" fill="black"/>
</svg>
