<svg width="35" height="35" viewBox="0 0 35 35" fill="none" xmlns="http://www.w3.org/2000/svg">
<path d="M31.25 35H3.75C1.67891 35 0 33.3211 0 31.25V3.75C0 1.67891 1.67891 0 3.75 0H31.25C33.3211 0 35 1.67891 35 3.75V31.25C35 33.3211 33.3211 35 31.25 35ZM15.2589 27.3391L29.6339 12.9641C30.122 12.476 30.122 11.6845 29.6339 11.1964L27.8662 9.42867C27.378 8.94055 26.5866 8.94047 26.0984 9.42867L14.375 21.152L8.90164 15.6786C8.41352 15.1905 7.62203 15.1905 7.13383 15.6786L5.36609 17.4463C4.87797 17.9345 4.87797 18.7259 5.36609 19.2141L13.4911 27.3391C13.9793 27.8273 14.7707 27.8273 15.2589 27.3391Z" fill="black"/>
</svg>
