<svg width="78" height="78" viewBox="0 0 78 78" fill="none" xmlns="http://www.w3.org/2000/svg">
<circle cx="39" cy="39" r="39" fill="#084723"/>
<circle cx="39" cy="39" r="29" fill="white"/>
<path d="M50.7857 46.0714L43.7143 39L50.7857 31.9286C51.6534 31.0609 51.6534 29.6534 50.7857 28.7857L49.2143 27.2143C48.3466 26.3466 46.9392 26.3466 46.0714 27.2143L39 34.2857L31.9286 27.2143C31.0608 26.3466 29.6534 26.3466 28.7857 27.2143L27.2143 28.7857C26.3466 29.6534 26.3466 31.0609 27.2143 31.9286L34.2857 39L27.2143 46.0714C26.3466 46.9392 26.3466 48.3466 27.2143 49.2143L28.7857 50.7857C29.6534 51.6534 31.0608 51.6534 31.9286 50.7857L39 43.7143L46.0714 50.7857C46.9392 51.6534 48.3466 51.6534 49.2143 50.7857L50.7857 49.2143C51.6534 48.3466 51.6534 46.9392 50.7857 46.0714Z" fill="#084723"/>
</svg>
