<svg width="462" height="93" viewBox="0 0 462 93" fill="none" xmlns="http://www.w3.org/2000/svg">
<path d="M66.7959 44.1999C64.333 48.6093 60.5588 52.1707 55.4624 54.8736C50.3661 57.5765 44.0437 58.9332 36.4952 58.9332H22.5283V91.94H0V0H36.4952C43.8731 0 50.1102 1.27194 55.2066 3.79462C60.3029 6.3279 64.1198 9.81514 66.6679 14.2775C69.2161 18.7293 70.4848 23.8383 70.4848 29.6044C70.4848 34.9359 69.2587 39.8011 66.7959 44.2105V44.1999ZM44.3955 38.1158C46.5066 36.1125 47.5621 33.2718 47.5621 29.6044C47.5621 25.937 46.5066 23.0963 44.3955 21.093C42.2845 19.0897 39.0753 18.0827 34.7786 18.0827H22.5283V41.1367H34.7786C39.086 41.1367 42.2845 40.1297 44.3955 38.1264V38.1158Z" fill="black"/>
<path d="M104.144 21.5488C108.099 19.2381 112.492 18.0827 117.322 18.0827V41.7938H111.127C105.509 41.7938 101.287 42.9916 98.4826 45.3977C95.6679 47.8037 94.2712 52.0117 94.2712 58.0323V91.9507H71.7429V18.8565H94.2712V31.0353C96.9047 27.0181 100.199 23.8489 104.155 21.5382L104.144 21.5488Z" fill="black"/>
<path d="M189.566 60.7775H138.581C138.933 65.3141 140.405 68.7908 142.995 71.1862C145.586 73.5923 148.774 74.7901 152.548 74.7901C158.167 74.7901 162.08 72.437 164.276 67.7202H188.255C187.029 72.5218 184.811 76.8464 181.602 80.6834C178.392 84.531 174.373 87.5413 169.543 89.7248C164.713 91.9083 159.308 93 153.337 93C146.13 93 139.722 91.4737 134.104 88.4104C128.485 85.3578 124.092 80.9908 120.926 75.3094C117.759 69.6387 116.181 62.9928 116.181 55.4036C116.181 47.8143 117.738 41.1685 120.862 35.4977C123.975 29.827 128.346 25.46 133.965 22.3967C139.584 19.3441 146.045 17.8178 153.337 17.8178C160.63 17.8178 166.771 19.3017 172.305 22.2695C177.838 25.2374 182.167 29.4772 185.28 34.9783C188.393 40.4795 189.96 46.8922 189.96 54.227C189.96 56.3257 189.833 58.5092 189.566 60.7775ZM166.91 48.3337C166.91 44.4967 165.588 41.4334 162.954 39.1651C160.321 36.8969 157.026 35.7627 153.071 35.7627C149.115 35.7627 146.109 36.8545 143.518 39.038C140.927 41.2215 139.317 44.3271 138.709 48.3337H166.899H166.91Z" fill="black"/>
<path d="M206.22 89.7142C201.209 87.5307 197.264 84.5416 194.364 80.747C191.464 76.9524 189.843 72.6914 189.491 67.9746H211.753C212.02 70.5079 213.203 72.5642 215.314 74.1329C217.425 75.7016 220.016 76.486 223.087 76.486C225.901 76.486 228.066 75.9454 229.612 74.8537C231.147 73.7619 231.914 72.3416 231.914 70.5927C231.914 68.494 230.816 66.9464 228.62 65.9395C226.424 64.9325 222.863 63.8196 217.948 62.6006C212.681 61.3817 208.288 60.0886 204.77 58.7424C201.251 57.3857 198.223 55.2552 195.675 52.3191C193.127 49.3937 191.858 45.4401 191.858 40.4689C191.858 36.2821 193.02 32.4557 195.345 29.0108C197.669 25.566 201.091 22.8313 205.623 20.828C210.143 18.8247 215.527 17.8178 221.764 17.8178C230.987 17.8178 238.258 20.086 243.568 24.6226C248.877 29.1698 251.937 35.1903 252.726 42.6948H231.914C231.563 40.1615 230.443 38.1582 228.556 36.6743C226.669 35.1903 224.185 34.4484 221.114 34.4484C218.481 34.4484 216.455 34.9465 215.058 35.9535C213.651 36.9604 212.947 38.3384 212.947 40.0767C212.947 42.1754 214.067 43.7441 216.306 44.7935C218.545 45.8428 222.042 46.8922 226.775 47.9415C232.224 49.3407 236.659 50.7186 240.081 52.0647C243.504 53.4215 246.51 55.605 249.101 58.6152C251.692 61.6255 253.035 65.6639 253.121 70.7305C253.121 75.0127 251.916 78.8285 249.496 82.1885C247.075 85.5486 243.61 88.1984 239.09 90.1169C234.569 92.0354 229.313 93 223.342 93C216.935 93 211.22 91.9083 206.22 89.7248V89.7142Z" fill="black"/>
<path d="M327.518 60.7775H276.534C276.886 65.3141 278.357 68.7908 280.948 71.1862C283.539 73.5923 286.727 74.7901 290.501 74.7901C296.12 74.7901 300.032 72.437 302.229 67.7202H326.207C324.981 72.5218 322.763 76.8464 319.554 80.6834C316.345 84.531 312.325 87.5413 307.496 89.7248C302.666 91.9083 297.26 93 291.29 93C284.082 93 277.675 91.4737 272.056 88.4104C266.437 85.3578 262.045 80.9908 258.878 75.3094C255.711 69.6387 254.134 62.9928 254.134 55.4036C254.134 47.8143 255.69 41.1685 258.814 35.4977C261.927 29.827 266.299 25.46 271.917 22.3967C277.536 19.3441 283.997 17.8178 291.29 17.8178C298.582 17.8178 304.724 19.3017 310.257 22.2695C315.79 25.2374 320.119 29.4772 323.232 34.9783C326.346 40.4795 327.913 46.8922 327.913 54.227C327.913 56.3257 327.785 58.5092 327.518 60.7775ZM304.862 48.3337C304.862 44.4967 303.54 41.4334 300.907 39.1651C298.273 36.8969 294.979 35.7627 291.023 35.7627C287.068 35.7627 284.061 36.8545 281.47 39.038C278.879 41.2215 277.27 44.3271 276.662 48.3337H304.851H304.862Z" fill="black"/>
<path d="M363.512 21.5488C367.468 19.2381 371.861 18.0827 376.69 18.0827V41.7938H370.496C364.877 41.7938 360.655 42.9916 357.851 45.3977C355.036 47.8037 353.64 52.0117 353.64 58.0323V91.9507H331.111V18.8565H353.64V31.0353C356.273 27.0181 359.568 23.8489 363.523 21.5382L363.512 21.5488Z" fill="black"/>
<path d="M417.237 70.9848L438.944 0H461.227L431.065 91.9506H403.27L377.181 18.8671H401.287L417.226 70.9954L417.237 70.9848Z" fill="black"/>
</svg>
