<svg width="76" height="79" viewBox="0 0 76 79" fill="none" xmlns="http://www.w3.org/2000/svg">
<path d="M23.5261 26.4746C28.3933 26.0207 31.956 30.3536 36.4324 30.7099C44.5463 31.3593 47.7527 22.5554 56.3895 28.6641C60.4636 31.5489 58.6535 33.3878 59.1018 37.5254C59.4351 40.5998 63.3483 41.8698 65.4457 39.5941C67.1237 37.7667 66.0778 34.7727 66.4169 32.5718C66.7042 30.6984 70.221 30.6007 70.5313 32.296C70.7726 33.6004 70.629 35.0888 70.6807 36.422C71.0484 46.0476 70.5428 55.7191 70.6807 65.3505C70.8243 74.7519 64.9113 78.1884 56.2746 78.6481C46.069 79.194 35.3981 78.0332 25.1351 78.5044C16.9695 79.1711 6.12615 78.5676 4.5459 68.5226L4.60336 32.0776C4.82747 31.6581 5.22971 31.2041 5.71815 31.1294C7.44781 30.8536 9.67165 31.3133 11.4932 31.1179C13.4987 30.9053 16.1191 30.0663 17.9062 29.1238C19.8254 28.1124 21.2161 26.693 23.5204 26.4746H23.5261Z" fill="black"/>
<path d="M8.08565 14.2056L67.0088 14.1826C68.1753 14.3665 69.3533 17.1077 70.0026 18.0731C71.353 20.0844 72.9275 21.3372 74.3813 23.0611C74.9789 23.7737 75.5363 24.3311 74.8065 25.1299C73.3642 26.6987 67.072 27.5205 64.9516 27.3941C58.8547 27.0435 54.8552 21.4981 48.3159 22.475C43.9889 23.1244 40.6732 27.4516 36.0761 26.5091C33.6224 26.0034 31.3986 24.0668 29.0943 23.1588C21.0437 19.9982 17.004 27.1297 9.84404 27.4056C7.55699 27.4918 3.39088 26.8482 1.31645 25.8655C-1.84405 24.3599 1.51182 22.4003 2.81625 20.9291C3.56327 20.0844 4.46545 18.9063 5.0918 17.9696C5.96525 16.6479 6.48816 14.832 8.0799 14.2114L8.08565 14.2056Z" fill="black"/>
<path d="M9.18897 0.0172391L65.7618 0C69.5774 0.71258 70.6462 4.77543 69.9681 8.17168C69.6578 9.72901 68.6407 10.1772 67.1582 10.3267L7.51678 10.3037C5.37914 9.95313 5.02286 8.77507 4.94816 6.80973C4.82749 3.60312 5.80437 0.810271 9.18897 0.0172391Z" fill="black"/>
</svg>
