<svg width="128" height="128" viewBox="0 0 128 128" fill="none" xmlns="http://www.w3.org/2000/svg">
<path d="M115.45 7.62939e-06C122.03 0.798786 127.282 5.98223 127.983 12.6081L127.994 115.116C127.471 121.914 121.909 127.471 115.111 128H12.7454C5.93023 127.362 0.499933 121.799 0 114.978V12.8839C0.48844 6.38449 6.01068 0.603402 12.5443 7.62939e-06H115.456H115.45ZM34.8286 18.2225C29.2892 19.2856 25.4334 23.2623 24.6863 28.8825C24.2611 32.0489 24.5254 35.6347 26.3011 38.3471C24.8415 41.6744 21.1236 43.3812 19.9513 46.8751C18.7791 50.369 20.0663 53.8687 23.0314 56.1329C23.3589 56.38 24.0542 56.6156 24.1232 56.9719V94.3076C26.801 108.904 38.3224 110.72 51.0621 110.639C56.7854 110.605 62.5375 110.467 68.2839 110.49C79.0066 110.53 93.1311 112.639 100.417 102.824C104.992 96.6637 103.837 90.2907 103.883 83.142C103.923 76.0909 104.365 69.011 104.17 61.9255L103.888 56.9719C103.946 56.6903 105.767 55.5238 106.17 55.1215C108.801 52.4723 109.336 49.2829 107.635 45.9269C106.227 43.1513 103.067 41.3699 101.705 38.4793C101.653 38.169 102.394 37.0886 102.578 36.6461C105.681 29.187 101.44 19.2339 92.9357 18.188L34.8344 18.2225H34.8286Z" fill="black"/>
<path d="M49.9875 51.5643C54.8547 51.1104 58.4174 55.4433 62.8938 55.7996C71.0077 56.449 74.2141 47.6452 82.8509 53.7538C86.9251 56.6386 85.115 58.4775 85.5632 62.6151C85.8965 65.6895 89.8097 66.9595 91.9072 64.6839C93.5851 62.8564 92.5393 59.8624 92.8783 57.6615C93.1656 55.7881 96.6824 55.6904 96.9927 57.3857C97.234 58.6901 97.0904 60.1785 97.1421 61.5117C97.5099 71.1373 97.0042 80.8088 97.1421 90.4402C97.2858 99.8416 91.3727 103.278 82.736 103.738C72.5305 104.284 61.8595 103.123 51.5965 103.594C43.4309 104.261 32.5876 103.657 31.0073 93.6123L31.0648 57.1673C31.2889 56.7478 31.6911 56.2938 32.1796 56.2191C33.9092 55.9433 36.1331 56.403 37.9547 56.2076C39.9601 55.995 42.5805 55.156 44.3676 54.2135C46.2869 53.2021 47.6775 51.7827 49.9818 51.5643H49.9875Z" fill="black"/>
<path d="M34.5471 39.2953L93.4702 39.2723C94.6367 39.4562 95.8147 42.1974 96.464 43.1628C97.8144 45.1741 99.3889 46.4269 100.843 48.1508C101.44 48.8634 101.998 49.4208 101.268 50.2196C99.8256 51.7885 93.5334 52.6102 91.413 52.4838C85.3161 52.1332 81.3166 46.5878 74.7773 47.5647C70.4503 48.2141 67.1346 52.5413 62.5376 51.5988C60.0839 51.0931 57.86 49.1565 55.5557 48.2485C47.5051 45.0879 43.4654 52.2194 36.3055 52.4953C34.0184 52.5815 29.8523 51.9379 27.7779 50.9552C24.6174 49.4496 27.9732 47.49 29.2777 46.0189C30.0247 45.1741 30.9269 43.996 31.5532 43.0593C32.4267 41.7376 32.9496 39.9217 34.5413 39.3011L34.5471 39.2953Z" fill="black"/>
<path d="M35.6504 25.1069L92.2232 25.0897C96.0388 25.8023 97.1076 29.8651 96.4296 33.2614C96.1193 34.8187 95.1021 35.267 93.6196 35.4164L33.9782 35.3934C31.8406 35.0428 31.4843 33.8648 31.4096 31.8994C31.2889 28.6928 32.2658 25.9 35.6504 25.1069Z" fill="black"/>
</svg>
