<svg width="48" height="59" viewBox="0 0 48 59" fill="none" xmlns="http://www.w3.org/2000/svg">
<path d="M23.9885 1.75172C24.0808 2.29332 25.8462 12.6413 25.8462 16.5939C25.8462 22.6206 22.6385 26.9188 17.8962 28.6474L19.3846 56.0846C19.4654 57.6633 18.2077 59 16.6154 59H9.23077C7.65 59 6.38077 57.6748 6.46154 56.0846L7.95 28.6474C3.19615 26.9188 0 22.6091 0 16.5939C0 12.6298 1.76538 2.29332 1.85769 1.75172C2.22692 -0.587529 7.08462 -0.622099 7.38462 1.87848V18.1495C7.53462 18.5413 9.12692 18.5183 9.23077 18.1495C9.39231 15.2341 10.1423 2.10895 10.1538 1.80934C10.5346 -0.587529 15.3115 -0.587529 15.6808 1.80934C15.7038 2.12047 16.4423 15.2341 16.6038 18.1495C16.7077 18.5183 18.3115 18.5413 18.45 18.1495V1.87848C18.75 -0.610576 23.6192 -0.587529 23.9885 1.75172ZM37.7423 34.6741L36.0115 56.0039C35.8731 57.6172 37.1538 59 38.7692 59H45.2308C46.7654 59 48 57.767 48 56.2344V2.76578C48 1.24469 46.7654 0.000164712 45.2308 0.000164712C35.7115 0.000164712 19.6846 20.5694 37.7423 34.6741Z" fill="black"/>
</svg>
