<svg width="55" height="63" viewBox="0 0 55 63" fill="none" xmlns="http://www.w3.org/2000/svg">
<path d="M55 44.2969V2.95312C55 1.3166 53.6864 0 52.0536 0H11.7857C5.27902 0 0 5.29102 0 11.8125V51.1875C0 57.709 5.27902 63 11.7857 63H52.0536C53.6864 63 55 61.6834 55 60.0469V58.0781C55 57.1553 54.5703 56.3186 53.9074 55.7771C53.3917 53.8822 53.3917 48.4805 53.9074 46.5855C54.5703 46.0564 55 45.2197 55 44.2969ZM15.7143 16.4883C15.7143 16.0822 16.0458 15.75 16.4509 15.75H42.4777C42.8828 15.75 43.2143 16.0822 43.2143 16.4883V18.9492C43.2143 19.3553 42.8828 19.6875 42.4777 19.6875H16.4509C16.0458 19.6875 15.7143 19.3553 15.7143 18.9492V16.4883ZM15.7143 24.3633C15.7143 23.9572 16.0458 23.625 16.4509 23.625H42.4777C42.8828 23.625 43.2143 23.9572 43.2143 24.3633V26.8242C43.2143 27.2303 42.8828 27.5625 42.4777 27.5625H16.4509C16.0458 27.5625 15.7143 27.2303 15.7143 26.8242V24.3633ZM46.8237 55.125H11.7857C9.61272 55.125 7.85714 53.3654 7.85714 51.1875C7.85714 49.0219 9.625 47.25 11.7857 47.25H46.8237C46.5904 49.3541 46.5904 53.0209 46.8237 55.125Z" fill="black"/>
</svg>
