<svg width="79" height="60" viewBox="0 0 79 60" fill="none" xmlns="http://www.w3.org/2000/svg">
<g clip-path="url(#clip0_18_56)">
<path d="M23.5238 1.75171V6.8233C23.5238 7.74086 22.7967 8.48325 21.8981 8.48325H8.36754V22.3008C8.36754 23.2184 7.64046 23.9608 6.74183 23.9608H1.7728C0.87417 23.9608 0.147095 23.2184 0.147095 22.3008V2.34395C0.147095 1.10107 1.13355 0.0917587 2.35079 0.0917587H21.8981C22.7967 0.0917587 23.5238 0.834147 23.5238 1.75171Z" fill="black"/>
<path d="M77.3743 23.869H72.4073C71.5087 23.869 70.7816 23.1266 70.7816 22.2091V8.39358H57.249C56.3504 8.39358 55.6233 7.65119 55.6233 6.73363V1.65995C55.6233 0.742388 56.3504 0 57.249 0H76.7963C78.0135 0 79 1.00723 79 2.2501V22.2091C79 23.1266 78.2729 23.869 77.3743 23.869Z" fill="black"/>
<path d="M55.6233 58.3401V53.2685C55.6233 52.3509 56.3504 51.6085 57.249 51.6085H70.7795V37.7909C70.7795 36.8734 71.5066 36.131 72.4052 36.131H77.3743C78.2729 36.131 79 36.8734 79 37.7909V57.7499C79 58.9928 78.0135 60 76.7963 60H57.249C56.3504 60 55.6233 59.2576 55.6233 58.3401Z" fill="black"/>
<path d="M1.62571 36.131H6.59269C7.49133 36.131 8.2184 36.8734 8.2184 37.7909V51.6064H21.751C22.6496 51.6064 23.3767 52.3488 23.3767 53.2664V58.3401C23.3767 59.2576 22.6496 60 21.751 60H2.20369C0.986453 60 0 58.9928 0 57.7499V37.7909C0 36.8734 0.727075 36.131 1.62571 36.131Z" fill="black"/>
<path d="M22.0043 45.6173L22.0043 14.072C22.0043 13.0574 21.1987 12.2348 20.205 12.2348H16.447C15.4533 12.2348 14.6477 13.0574 14.6477 14.072L14.6477 45.6173C14.6477 46.6319 15.4533 47.4545 16.447 47.4545H20.205C21.1987 47.4545 22.0043 46.6319 22.0043 45.6173Z" fill="black"/>
<path d="M64.2073 45.6173V14.072C64.2073 13.0574 63.4017 12.2348 62.408 12.2348H59.2097C58.2159 12.2348 57.4103 13.0574 57.4103 14.072V45.6173C57.4103 46.6319 58.2159 47.4545 59.2097 47.4545H62.408C63.4017 47.4545 64.2073 46.6319 64.2073 45.6173Z" fill="black"/>
<path d="M25.656 46.7267L25.656 12.9626C25.656 12.5607 25.3369 12.2348 24.9432 12.2348H24.884C24.4903 12.2348 24.1712 12.5607 24.1712 12.9626L24.1712 46.7267C24.1712 47.1286 24.4903 47.4545 24.884 47.4545H24.9432C25.3369 47.4545 25.656 47.1286 25.656 46.7267Z" fill="black"/>
<path d="M30.0103 46.7288L30.0103 12.9647C30.0103 12.5627 29.6911 12.2369 29.2975 12.2369H28.5357C28.142 12.2369 27.8229 12.5627 27.8229 12.9647L27.8229 46.7288C27.8229 47.1307 28.142 47.4566 28.5357 47.4566H29.2975C29.6911 47.4566 30.0103 47.1307 30.0103 46.7288Z" fill="black"/>
<path d="M37.1707 46.7288V12.9647C37.1707 12.5627 36.8515 12.2369 36.4579 12.2369H32.894C32.5003 12.2369 32.1812 12.5627 32.1812 12.9647V46.7288C32.1812 47.1307 32.5003 47.4566 32.894 47.4566H36.4579C36.8515 47.4566 37.1707 47.1307 37.1707 46.7288Z" fill="black"/>
<path d="M41.525 46.7288V12.9647C41.525 12.5627 41.2059 12.2369 40.8122 12.2369H40.0505C39.6568 12.2369 39.3377 12.5627 39.3377 12.9647V46.7288C39.3377 47.1307 39.6568 47.4566 40.0505 47.4566H40.8122C41.2059 47.4566 41.525 47.1307 41.525 46.7288Z" fill="black"/>
<path d="M45.8813 46.7267V12.9626C45.8813 12.5607 45.5622 12.2348 45.1686 12.2348H44.4068C44.0131 12.2348 43.694 12.5607 43.694 12.9626V46.7267C43.694 47.1286 44.0131 47.4545 44.4068 47.4545H45.1686C45.5622 47.4545 45.8813 47.1286 45.8813 46.7267Z" fill="black"/>
<path d="M52.5577 46.7267V12.9626C52.5577 12.5607 52.2386 12.2348 51.845 12.2348H48.2811C47.8874 12.2348 47.5683 12.5607 47.5683 12.9626V46.7267C47.5683 47.1286 47.8874 47.4545 48.2811 47.4545H51.845C52.2386 47.4545 52.5577 47.1286 52.5577 46.7267Z" fill="black"/>
<path d="M55.7255 46.7288V12.9647C55.7255 12.5627 55.4063 12.2369 55.0127 12.2369H54.9535C54.5598 12.2369 54.2407 12.5627 54.2407 12.9647V46.7288C54.2407 47.1307 54.5598 47.4566 54.9535 47.4566H55.0127C55.4063 47.4566 55.7255 47.1307 55.7255 46.7288Z" fill="black"/>
</g>
<defs>
<clipPath id="clip0_18_56">
<rect width="79" height="60" fill="white"/>
</clipPath>
</defs>
</svg>
