<svg width="61" height="57" viewBox="0 0 61 57" fill="none" xmlns="http://www.w3.org/2000/svg">
<g clip-path="url(#clip0_18_411)">
<path d="M49.9873 19.2361L46.0946 22.791C45.3907 23.4338 44.2501 23.4338 43.5462 22.791L35.0638 15.0406V42.2346C35.0638 43.2406 34.1721 44.0571 33.0722 44.0571H27.8668C26.7646 44.0571 25.8729 43.2406 25.8729 42.2346V15.0429L17.4538 22.7346C16.7522 23.3774 15.6116 23.3774 14.9077 22.7346L11.0128 19.1774C10.3089 18.5346 10.3089 17.4925 11.0128 16.8496L28.7427 0.654135C29.6955 -0.218798 31.2412 -0.218798 32.1963 0.654135L49.9873 16.9083C50.6912 17.5511 50.6912 18.5932 49.9873 19.2361Z" fill="black"/>
<path d="M51.8906 47.8376V32.9752C51.8906 31.9827 52.6963 31.1797 53.6921 31.1797H59.1985C60.1943 31.1797 61 31.985 61 32.9752V51.1692C61 54.388 58.3815 56.9977 55.1519 56.9977H49.8085C49.7745 56.9977 49.7406 56.9977 49.7066 56.9977H11.2934C11.2594 56.9977 11.2255 56.9977 11.1915 56.9977H5.84811C2.61852 56.9977 0 54.388 0 51.1692V32.9752C0 31.985 0.805699 31.1797 1.80151 31.1797H7.30561C8.30141 31.1797 9.10711 31.985 9.10711 32.9752V47.9188V47.8376H51.8906Z" fill="black"/>
</g>
<defs>
<clipPath id="clip0_18_411">
<rect width="61" height="57" fill="white"/>
</clipPath>
</defs>
</svg>
